<svg xmlns="http://www.w3.org/2000/svg" version="1.1" xmlns:xlink="http://www.w3.org/1999/xlink" xmlns:svgjs="http://svgjs.dev/svgjs" width="1500" height="1500" viewBox="0 0 1500 1500"><rect width="1500" height="1500" fill="#000000"></rect><g transform="matrix(0.6666666666666666,0,0,0.6666666666666666,250.65960938785548,409.2761133603239)"><svg viewBox="0 0 362 247" data-background-color="#ffffff" preserveAspectRatio="xMidYMid meet" height="1023" width="1500" xmlns="http://www.w3.org/2000/svg" xmlns:xlink="http://www.w3.org/1999/xlink"><g id="tight-bounds" transform="matrix(1,0,0,1,-0.23877859840368387,-0.09999999999999432)"><svg viewBox="0 0 362.47755719680737 247.2" height="247.2" width="362.47755719680737"><g><svg viewBox="0 0 395.52 269.73406231303403" height="247.2" width="362.47755719680737"><g><svg viewBox="0 0 395.52 269.73406231303403" height="269.73406231303403" width="395.52"><g id="textblocktransform"><svg viewBox="0 0 395.52 269.73406231303403" height="269.73406231303403" width="395.52" id="textblock"><g><svg viewBox="0 0 395.52 183.90910505836575" height="183.90910505836575" width="395.52"><g transform="matrix(1,0,0,1,0,0)"><svg width="395.52" viewBox="2.34 -35.01 75.28999999999999 35.01" height="183.90910505836575" data-palette-color="#6b7280"><path d="M37.33-10.3L37.33-10.3Q37.33-8.42 36.85-6.92 36.38-5.42 35.6-4.27 34.81-3.13 33.76-2.32 32.71-1.51 31.59-1 30.47-0.49 29.31-0.24 28.15 0 27.12 0L27.12 0 2.64 0 2.64-6.35 27.12-6.35Q28.96-6.35 29.97-7.42 30.98-8.5 30.98-10.3L30.98-10.3Q30.98-11.18 30.71-11.91 30.44-12.65 29.94-13.18 29.44-13.72 28.72-14.01 28-14.31 27.12-14.31L27.12-14.31 12.52-14.31Q10.99-14.31 9.2-14.86 7.42-15.41 5.9-16.63 4.37-17.85 3.36-19.82 2.34-21.8 2.34-24.66L2.34-24.66Q2.34-27.51 3.36-29.48 4.37-31.45 5.9-32.68 7.42-33.91 9.2-34.46 10.99-35.01 12.52-35.01L12.52-35.01 34.13-35.01 34.13-28.66 12.52-28.66Q10.72-28.66 9.7-27.56 8.69-26.46 8.69-24.66L8.69-24.66Q8.69-22.83 9.7-21.77 10.72-20.7 12.52-20.7L12.52-20.7 27.12-20.7 27.17-20.7Q28.2-20.68 29.35-20.42 30.49-20.17 31.63-19.63 32.76-19.09 33.79-18.27 34.81-17.46 35.61-16.31 36.4-15.16 36.87-13.67 37.33-12.18 37.33-10.3ZM49-35.01L49-20.7 71.29-20.7 71.29-35.01 77.63-35.01 77.63 0 71.29 0 71.29-14.31 49-14.31 49 0 42.65 0 42.65-35.01 49-35.01Z" opacity="1" transform="matrix(1,0,0,1,0,0)" fill="#ffffff" class="wordmark-text-0" data-fill-palette-color="primary" id="text-0"></path></svg></g></svg></g><g transform="matrix(1,0,0,1,75.54432,227.3256309441245)"><svg viewBox="0 0 244.43135999999998 42.40843136890952" height="42.40843136890952" width="244.43135999999998"><g transform="matrix(1,0,0,1,0,0)"><svg width="244.43135999999998" viewBox="2.4 -33.2 193.93 33.650000000000006" height="42.40843136890952" data-palette-color="#6b7280"><path d="M11.05-30.2L2.4-30.2 2.4-32.75 22.5-32.75 22.5-30.2 13.8-30.2 13.8 0 11.05 0 11.05-30.2ZM31.55-19.4L31.55-19.4 31.55 0 28.9 0 28.9-33.2 31.55-33.2 31.55-21.95Q36.25-24.05 39.3-24.05L39.3-24.05Q46.45-24.05 46.45-15.85L46.45-15.85 46.45 0 43.8 0 43.8-15.85Q43.8-18.4 42.7-19.93 41.6-21.45 38.9-21.45 36.2-21.45 31.55-19.4ZM53.35-11.85Q53.35-17.6 55.72-20.83 58.1-24.05 62.65-24.05 67.2-24.05 69.42-21.05 71.65-18.05 71.65-13.05L71.65-13.05 71.5-10.55 56.2-10.55Q56.45-6.8 58.2-4.48 59.95-2.15 63.02-2.15 66.09-2.15 70.25-3.6L70.25-3.6 71-1.1Q66.95 0.45 63.4 0.45L63.4 0.45Q58.5 0.45 55.92-2.83 53.35-6.1 53.35-11.85ZM62.85-21.5L62.85-21.5Q56.55-21.5 56.2-13.05L56.2-13.05 68.8-13.05Q68.8-21.5 62.85-21.5ZM109.59 0L102.99 0 102.99-32.75 109.69-32.75Q113.39-32.75 115.77-32.02 118.14-31.3 119.79-29.45 121.44-27.6 122.17-24.43 122.89-21.25 122.89-16.38 122.89-11.5 122.09-8.28 121.29-5.05 119.54-3.25 117.79-1.45 115.44-0.73 113.09 0 109.59 0L109.59 0ZM115.57-3.6Q117.69-4.7 118.82-7.73 119.94-10.75 119.94-16.38 119.94-22 118.84-25.03 117.74-28.05 115.64-29.15 113.54-30.25 109.69-30.25L109.69-30.25 105.74-30.25 105.74-2.5 109.59-2.5Q113.44-2.5 115.57-3.6ZM135.89-2.15L135.89-2.15Q137.74-2.15 139.91-3.33 142.09-4.5 143.09-5.5L143.09-5.5 143.09-11.45Q139.79-11.7 136.79-11.7 133.79-11.7 132.29-10.43 130.79-9.15 130.79-7L130.79-7Q130.79-2.15 135.89-2.15ZM135.84 0.45L135.84 0.45Q132.19 0.45 130.09-1.43 127.99-3.3 127.99-6.75 127.99-10.2 130.29-12.1L130.29-12.1Q132.59-14.05 136.39-14.05 140.19-14.05 143.09-13.75L143.09-13.75Q143.09-18.2 141.99-19.83 140.89-21.45 137.54-21.45 134.19-21.45 129.64-19.85L129.64-19.85 128.89-22.35Q133.54-24.05 137.29-24.05L137.29-24.05Q142.24-24.05 143.99-21.85 145.74-19.65 145.74-14.15L145.74-14.15 145.74-3.65 146.14 0.15 143.59 0.4 143.09-2.6Q141.94-1.6 139.84-0.58 137.74 0.45 135.84 0.45ZM168.04-2.4L170.64-23.75 173.24-23.75 170.39 0 165.09 0 162.54-10.35 162.34-10.35 159.74 0 154.49 0 151.74-23.75 154.34-23.75 156.94-2.4 157.84-2.4 161.19-14.45 163.79-14.45 167.14-2.4 168.04-2.4ZM178.78-23.75L181.33-23.75 181.43-21.75Q186.28-24.05 189.48-24.05 192.68-24.05 194.51-21.85 196.33-19.65 196.33-15.85L196.33-15.85 196.33 0 193.68 0 193.68-15.85Q193.68-18.3 192.48-19.9L192.48-19.9Q191.28-21.45 188.88-21.45 186.48-21.45 181.43-19.25L181.43-19.25 181.43 0 178.78 0 178.78-23.75Z" opacity="1" transform="matrix(1,0,0,1,0,0)" fill="#ffffff" class="slogan-text-1" data-fill-palette-color="secondary" id="text-1"></path></svg></g></svg></g></svg></g></svg></g><g></g></svg></g><defs></defs></svg><rect width="362.47755719680737" height="247.2" fill="none" stroke="none" visibility="hidden"></rect></g></svg></g></svg>